<svg xmlns="http://www.w3.org/2000/svg" width="180" height="39" viewBox="0 0 180 39" fill="black"><g id="RollingCode Logo"><path d="M140.453 38.9422C139.792 38.9422 139.223 38.7842 138.753 38.4682C138.279 38.1522 137.951 37.7167 137.768 37.1579L138.386 36.7918C138.516 37.2427 138.757 37.5972 139.108 37.8516C139.46 38.1059 139.91 38.2331 140.464 38.2331C141.003 38.2331 141.419 38.1136 141.721 37.8747C142.019 37.6358 142.172 37.3159 142.172 36.919C142.172 36.522 142.034 36.2484 141.759 36.0519C141.484 35.8592 141.03 35.6549 140.396 35.4468C139.643 35.1963 139.147 34.9959 138.906 34.8418C138.356 34.5065 138.081 34.0248 138.081 33.3928C138.081 32.7723 138.295 32.2867 138.723 31.9283C139.15 31.5699 139.677 31.3927 140.304 31.3927C140.869 31.3927 141.358 31.5391 141.771 31.8359C142.183 32.1326 142.493 32.5103 142.691 32.9689L142.08 33.3118C141.748 32.5064 141.156 32.1018 140.304 32.1018C139.857 32.1018 139.494 32.2135 139.219 32.437C138.944 32.6606 138.807 32.9689 138.807 33.3658C138.807 33.7281 138.933 33.9978 139.177 34.1789C139.425 34.3601 139.834 34.545 140.407 34.73C140.671 34.8187 140.858 34.8842 140.972 34.9227C141.087 34.9613 141.251 35.0229 141.469 35.1115C141.687 35.2002 141.847 35.2734 141.95 35.3428C142.053 35.4083 142.179 35.5008 142.328 35.6125C142.477 35.7281 142.584 35.8438 142.649 35.9555C142.714 36.0711 142.772 36.2099 142.825 36.3717C142.879 36.5336 142.901 36.7109 142.901 36.8997C142.901 37.5201 142.676 38.0134 142.229 38.3872C141.782 38.7611 141.19 38.946 140.461 38.946L140.453 38.9422Z" fill="black"></path><path d="M147.462 38.9422C146.366 38.9422 145.461 38.576 144.743 37.8477C144.024 37.1193 143.669 36.2253 143.669 35.1693C143.669 34.1134 144.028 33.2193 144.743 32.491C145.461 31.7626 146.366 31.3965 147.462 31.3965C148.131 31.3965 148.746 31.5584 149.304 31.8821C149.861 32.2058 150.293 32.6413 150.595 33.1924L149.953 33.5662C149.724 33.123 149.388 32.7684 148.941 32.5025C148.494 32.2366 148.001 32.1056 147.462 32.1056C146.561 32.1056 145.824 32.4023 145.251 32.992C144.678 33.5816 144.391 34.3099 144.391 35.1732C144.391 36.0364 144.678 36.7609 145.251 37.3544C145.824 37.944 146.561 38.2408 147.462 38.2408C148.001 38.2408 148.494 38.1097 148.941 37.8438C149.388 37.5779 149.727 37.2234 149.953 36.7802L150.595 37.1463C150.297 37.6974 149.869 38.1329 149.307 38.4604C148.746 38.788 148.131 38.9499 147.462 38.9499V38.9422Z" fill="black"></path><path d="M156.431 31.5159H157.153V38.815H156.431V35.4044H152.504V38.815H151.783V31.5159H152.504V34.7184H156.431V31.5159Z" fill="black"></path><path d="M164.793 37.8438C164.071 38.576 163.185 38.946 162.138 38.946C161.091 38.946 160.205 38.5799 159.483 37.8438C158.761 37.1116 158.398 36.2176 158.398 35.1693C158.398 34.1211 158.761 33.227 159.483 32.4948C160.205 31.7626 161.091 31.3965 162.138 31.3965C163.185 31.3965 164.071 31.7626 164.793 32.4948C165.515 33.227 165.878 34.1211 165.878 35.1693C165.878 36.2176 165.515 37.1116 164.793 37.8438ZM159.987 37.3428C160.568 37.9363 161.282 38.2331 162.138 38.2331C162.994 38.2331 163.708 37.9363 164.289 37.3428C164.869 36.7494 165.156 36.0249 165.156 35.1693C165.156 34.3138 164.865 33.5893 164.289 32.9958C163.708 32.4023 162.994 32.1056 162.138 32.1056C161.282 32.1056 160.568 32.4023 159.987 32.9958C159.407 33.5893 159.12 34.3138 159.12 35.1693C159.12 36.0249 159.411 36.7494 159.987 37.3428Z" fill="black"></path><path d="M173.105 37.8438C172.383 38.576 171.497 38.946 170.446 38.946C169.396 38.946 168.513 38.5799 167.792 37.8438C167.07 37.1116 166.707 36.2176 166.707 35.1693C166.707 34.1211 167.07 33.227 167.792 32.4948C168.513 31.7626 169.4 31.3965 170.446 31.3965C171.493 31.3965 172.379 31.7626 173.105 32.4948C173.827 33.227 174.19 34.1211 174.19 35.1693C174.19 36.2176 173.827 37.1116 173.105 37.8438ZM168.3 37.3428C168.88 37.9363 169.594 38.2331 170.45 38.2331C171.306 38.2331 172.02 37.9363 172.601 37.3428C173.181 36.7494 173.468 36.0249 173.468 35.1693C173.468 34.3138 173.178 33.5893 172.601 32.9958C172.02 32.4023 171.306 32.1056 170.45 32.1056C169.594 32.1056 168.88 32.4023 168.3 32.9958C167.719 33.5893 167.432 34.3138 167.432 35.1693C167.432 36.0249 167.723 36.7494 168.3 37.3428Z" fill="black"></path><path d="M176.153 38.129H179.461V38.8188H175.431V31.5198H176.153V38.1328V38.129Z" fill="black"></path><path d="M57.7603 28.5563L53.738 21.6234H49.5017V28.5563H47.1181V10.4437H54.2995C55.8389 10.4437 57.153 10.9909 58.2493 12.0854C59.3417 13.1798 59.8918 14.5055 59.8918 16.0586C59.8918 17.2301 59.5442 18.3015 58.8528 19.2649C58.1614 20.2322 57.2676 20.9105 56.1713 21.3074L60.4037 28.5524H57.7641L57.7603 28.5563ZM49.5017 12.6981V19.4499H54.2957C55.1857 19.4499 55.942 19.1185 56.5647 18.4556C57.1873 17.7928 57.5006 16.995 57.5006 16.0624C57.5006 15.1298 57.1873 14.3398 56.5647 13.6808C55.942 13.0257 55.1857 12.6981 54.2957 12.6981H49.5017Z" fill="black"></path><path d="M72.6004 26.8992C71.3322 28.1748 69.789 28.8107 67.9707 28.8107C66.1525 28.8107 64.6092 28.1748 63.3487 26.8992C62.0843 25.6275 61.454 24.0667 61.454 22.2169C61.454 20.3671 62.0843 18.8102 63.3487 17.5346C64.6092 16.259 66.1525 15.6231 67.9707 15.6231C69.789 15.6231 71.3322 16.259 72.6004 17.5346C73.8686 18.8102 74.5027 20.3671 74.5027 22.2169C74.5027 24.0667 73.8686 25.6236 72.6004 26.8992ZM65.0791 25.1958C65.8583 25.9743 66.8209 26.3635 67.9707 26.3635C69.1205 26.3635 70.0831 25.9743 70.8624 25.1958C71.6416 24.4174 72.0274 23.4231 72.0274 22.2169C72.0274 21.0107 71.6378 20.0126 70.8624 19.2302C70.0831 18.4441 69.1205 18.0548 67.9707 18.0548C66.8209 18.0548 65.8583 18.4479 65.0791 19.2302C64.2998 20.0164 63.914 21.0107 63.914 22.2169C63.914 23.4231 64.3037 24.4174 65.0791 25.1958Z" fill="black"></path><path d="M78.9033 26.167H83.6972V28.5563H76.428V15.8774H78.9071V26.1631L78.9033 26.167Z" fill="black"></path><path d="M87.7502 26.167H92.5441V28.5563H85.2749V15.8774H87.754V26.1631L87.7502 26.167Z" fill="black"></path><path d="M94.1255 15.8774H96.6046V28.5563H94.1255V15.8774Z" fill="black"></path><path d="M106.383 15.8774H108.863V28.5563H106.979L101.593 20.8064V28.5563H99.1143V15.8774H100.997L106.383 23.6004V15.8774Z" fill="black"></path><path d="M123.707 21.7467V22.7255C123.707 24.5368 123.134 26.0051 121.984 27.1265C120.834 28.248 119.352 28.8106 117.534 28.8106C115.593 28.8106 113.989 28.1748 112.713 26.8992C111.437 25.6274 110.803 24.0705 110.803 22.2361C110.803 20.4017 111.433 18.8256 112.698 17.5461C113.958 16.2667 115.524 15.6269 117.392 15.6269C118.565 15.6269 119.635 15.8967 120.605 16.4324C121.575 16.968 122.328 17.6848 122.866 18.5789L120.746 19.8121C120.448 19.2919 119.994 18.8718 119.39 18.5442C118.787 18.2167 118.114 18.0548 117.369 18.0548C116.174 18.0548 115.188 18.4517 114.417 19.2418C113.645 20.0318 113.259 21.0299 113.259 22.24C113.259 23.4501 113.653 24.4212 114.436 25.1997C115.219 25.9781 116.258 26.3673 117.549 26.3673C118.508 26.3673 119.299 26.1515 119.929 25.7238C120.555 25.296 120.983 24.7064 121.212 23.9588H117.408V21.7505H123.707V21.7467Z" fill="black"></path><path d="M134.838 28.8916C132.118 28.8916 129.876 27.9859 128.107 26.1747C126.338 24.3634 125.452 22.1398 125.452 19.5C125.452 16.8602 126.338 14.6365 128.107 12.8253C129.876 11.014 132.122 10.1084 134.838 10.1084C136.48 10.1084 137.989 10.5053 139.364 11.2992C140.739 12.0931 141.813 13.1606 142.584 14.5055L140.506 15.7233C139.994 14.7252 139.227 13.9236 138.211 13.3301C137.194 12.7366 136.068 12.436 134.838 12.436C132.767 12.436 131.079 13.1105 129.772 14.4554C128.466 15.8004 127.809 17.4806 127.809 19.5C127.809 21.5193 128.462 23.1726 129.772 24.5176C131.079 25.8625 132.767 26.5369 134.838 26.5369C136.068 26.5369 137.191 26.2402 138.211 25.6429C139.227 25.0494 139.994 24.2594 140.506 23.2767L142.584 24.4675C141.832 25.8124 140.762 26.8876 139.379 27.6892C137.993 28.4908 136.48 28.8916 134.841 28.8916H134.838Z" fill="black"></path><path d="M155.427 26.8992C154.159 28.1748 152.615 28.8107 150.797 28.8107C148.979 28.8107 147.436 28.1748 146.175 26.8992C144.911 25.6275 144.28 24.0667 144.28 22.2169C144.28 20.3671 144.911 18.8102 146.175 17.5346C147.436 16.259 148.979 15.6231 150.797 15.6231C152.615 15.6231 154.159 16.259 155.427 17.5346C156.695 18.8102 157.329 20.3671 157.329 22.2169C157.329 24.0667 156.695 25.6236 155.427 26.8992ZM147.905 25.1958C148.685 25.9743 149.647 26.3635 150.797 26.3635C151.947 26.3635 152.909 25.9743 153.689 25.1958C154.468 24.4174 154.854 23.4231 154.854 22.2169C154.854 21.0107 154.464 20.0126 153.689 19.2302C152.909 18.4441 151.947 18.0548 150.797 18.0548C149.647 18.0548 148.685 18.4479 147.905 19.2302C147.126 20.0164 146.74 21.0107 146.74 22.2169C146.74 23.4231 147.13 24.4174 147.905 25.1958Z" fill="black"></path><path d="M164.239 15.8774C165.962 15.8774 167.402 16.4863 168.556 17.708C169.709 18.9258 170.286 20.4326 170.286 22.2169C170.286 24.0012 169.709 25.508 168.556 26.7258C167.402 27.9435 165.962 28.5563 164.239 28.5563H159.251V15.8774H164.239ZM164.239 26.1631C165.328 26.1631 166.214 25.797 166.898 25.0686C167.582 24.3364 167.922 23.3884 167.922 22.2169C167.922 21.0453 167.582 20.0934 166.898 19.3651C166.214 18.6329 165.332 18.2706 164.239 18.2706H161.726V26.167H164.239V26.1631Z" fill="black"></path><path d="M174.706 26.167H180V28.5563H172.227V15.8774H179.908V18.2668H174.702V20.9644H179.458V23.319H174.702V26.1631L174.706 26.167Z" fill="black"></path><path d="M17.3499 11.9274L5.30585 17.5731V21.4269L17.3499 27.0765V23.2266L9.40457 19.5L17.3499 15.7773V11.9274Z" fill="black"></path><path d="M21.3072 11.9273V15.7772L29.2487 19.5L21.3072 23.2265V27.0765L33.3475 21.4268V17.5731L21.3072 11.9273Z" fill="black"></path><path d="M19.3285 2.28142C28.756 2.28142 36.3957 9.98893 36.3957 19.5C36.3957 29.0111 28.756 36.7186 19.3285 36.7186C9.9011 36.7186 2.26138 29.0111 2.26138 19.5C2.26138 9.98893 9.9011 2.28142 19.3285 2.28142ZM19.3285 0C8.6711 0 0 8.74802 0 19.5C0 30.252 8.6711 39 19.3285 39C29.986 39 38.6571 30.252 38.6571 19.5C38.6571 8.74802 29.986 0 19.3285 0Z" fill="black"></path></g></svg>