<svg version="1.1"
	 xmlns="http://www.w3.org/2000/svg" xmlns:xlink="http://www.w3.org/1999/xlink" xmlns:a="http://ns.adobe.com/AdobeSVGViewerExtensions/3.0/"
	 x="0px" y="0px" width="460.5px" height="79.6px" viewBox="0 0 460.5 79.6" style="enable-background:new 0 0 460.5 79.6;"
	 xml:space="preserve">
<style type="text/css">
	.st0{fill:#FFFFFF;}
</style>
<defs>
</defs>
<g>
	<path class="st0" d="M39.8,79.6C17.8,79.6,0,61.7,0,39.8S17.8,0,39.8,0s39.8,17.8,39.8,39.8S61.7,79.6,39.8,79.6z M39.8,3.4
		C19.7,3.4,3.4,19.7,3.4,39.8s16.3,36.4,36.4,36.4s36.4-16.3,36.4-36.4S59.8,3.4,39.8,3.4z"/>
	<g>
		<path class="st0" d="M109.5,42h-9.4v13.9h-5V17.4h14.7c8.3,0,11.2,3.6,11.2,9.5v5.5c0,4.6-1.7,7.7-6.1,9l10,14.5h-5.7L109.5,42z
			 M109.6,21.9h-9.5v15.7h9.5c4.7,0,6.4-1.3,6.4-5.1V27C116,23.1,114.3,21.9,109.6,21.9z"/>
		<path class="st0" d="M152.4,46.9c0,5.1-3,9.6-12.3,9.6s-12.3-4.4-12.3-9.6v-12c0-5.1,3-9.6,12.3-9.6s12.3,4.4,12.3,9.6V46.9z
			 M140.1,29.6c-5.4,0-7.4,1.8-7.4,5.4v11.7c0,3.6,2,5.4,7.4,5.4c5.3,0,7.4-1.8,7.4-5.4V35C147.5,31.5,145.4,29.6,140.1,29.6z"/>
		<path class="st0" d="M163.9,51.6h15v4.3H159v-30h4.9V51.6z"/>
		<path class="st0" d="M188.8,51.6h15v4.3h-19.9v-30h4.9V51.6z"/>
		<path class="st0" d="M213.9,55.9H209v-30h4.9V55.9z"/>
		<path class="st0" d="M226.5,31.8v24.1h-4.7v-30h6.2L242.1,50V25.9h4.7v30h-6.2L226.5,31.8z"/>
		<path class="st0" d="M258.2,46.9c0,3.7,1.2,5.3,6.5,5.3c2.3,0,4.4-0.2,6.2-0.6v-9.7h4.7V55c-3.4,1-8,1.5-10.9,1.5
			c-8.6,0-11.4-3.1-11.4-9V34.4c0-6.4,3.3-9.1,12-9.1c3.1,0,6.5,0.3,9.4,0.9l-0.5,4.2c-3.2-0.5-6.6-0.8-9.3-0.8
			c-5.2,0-6.8,1.1-6.8,5.3V46.9z"/>
		<path class="st0" d="M311.6,55.9V40.4h-12.4v15.5h-8.7V17.4h8.7v15.3h12.4V17.4h8.7v38.5H311.6z"/>
		<path class="st0" d="M326.6,25.9h21.7v6.8h-13.2v4.6h12.1v6.8h-12.1v5h13.2v6.8h-21.7V25.9z"/>
		<path class="st0" d="M371.8,51.4h-10.3l-1.3,4.5h-8.4l9.5-30h10.5l9.6,30h-8.4L371.8,51.4z M363.4,44.8h6.5l-3.3-12L363.4,44.8z"
			/>
		<path class="st0" d="M384.9,25.9h8.6v22.7h12.6v7.4h-21.1V25.9z"/>
		<path class="st0" d="M421.4,55.9h-8.6V33.3h-8.7v-7.4h26v7.4h-8.7V55.9z"/>
		<path class="st0" d="M451.9,44.5h-9.7v11.4h-8.6v-30h8.6v11.3h9.7V25.9h8.6v30h-8.6V44.5z"/>
	</g>
	<polygon class="st0" points="61.3,34.1 45.4,34.1 45.4,18.3 34.1,18.3 34.1,34.1 18.3,34.1 18.3,45.4 34.1,45.4 34.1,61.3 
		45.4,61.3 45.4,45.4 61.3,45.4 	"/>
</g>
</svg>
